<svg width="40" height="40" viewBox="0 0 40 40" fill="none" xmlns="http://www.w3.org/2000/svg">
<path d="M19.9998 38.3333C28.7443 38.3333 35.8332 31.2445 35.8332 22.5C35.8332 13.7555 28.7443 6.66667 19.9998 6.66667C11.2553 6.66667 4.1665 13.7555 4.1665 22.5C4.1665 31.2445 11.2553 38.3333 19.9998 38.3333Z" fill="white"/>
<path fill-rule="evenodd" clip-rule="evenodd" d="M21.6664 6.75334V1.66667H18.3331V6.75334C18.8809 6.69604 19.4369 6.66667 19.9998 6.66667C20.5628 6.66667 21.1188 6.69604 21.6664 6.75334ZM3.67831 12.0119L11.1783 4.51185L8.82129 2.15482L1.32129 9.65482L3.67831 12.0119ZM28.8213 4.51185L36.3213 12.0119L38.6783 9.65482L31.1783 2.15482L28.8213 4.51185ZM18.3331 13.3333V21.6667V23.3333H19.9998H25.8331V20H21.6664V13.3333H18.3331Z" fill="#003767"/>
</svg>
