<svg width="22" height="23" viewBox="0 0 22 23" fill="none" xmlns="http://www.w3.org/2000/svg">
<g id="Circle Clock">
<g id="circle-clock--clock-loading-measure-time-circle">
<path id="Ellipse 6" d="M0.916504 11.3259C0.916504 14.0002 1.97885 16.5649 3.86984 18.4559C5.76084 20.3469 8.32557 21.4092 10.9998 21.4092C13.6741 21.4092 16.2388 20.3469 18.1298 18.4559C20.0208 16.5649 21.0832 14.0002 21.0832 11.3259C21.0832 8.65162 20.0208 6.08689 18.1298 4.19589C16.2388 2.3049 13.6741 1.24255 10.9998 1.24255C8.32557 1.24255 5.76084 2.3049 3.86984 4.19589C1.97885 6.08689 0.916504 8.65162 0.916504 11.3259Z" fill="#60C5BA"/>
<path id="Vector 68 (Stroke)" fill-rule="evenodd" clip-rule="evenodd" d="M10.083 4.90924H11.9163V10.4092H15.583V12.2426H10.083V4.90924Z" fill="#003767"/>
</g>
</g>
</svg>
