<svg width="60" height="61" viewBox="0 0 60 61" fill="none" xmlns="http://www.w3.org/2000/svg">
<path fill-rule="evenodd" clip-rule="evenodd" d="M22.5 9.23242C22.5 12.6842 19.7018 15.4824 16.25 15.4824C12.7982 15.4824 10 12.6842 10 9.23242C10 5.78065 12.7982 2.98242 16.25 2.98242C19.7018 2.98242 22.5 5.78065 22.5 9.23242ZM43.75 46.7324C47.2018 46.7324 50 43.9342 50 40.4824C50 37.0307 47.2018 34.2324 43.75 34.2324C40.2983 34.2324 37.5 37.0307 37.5 40.4824C37.5 43.9342 40.2983 46.7324 43.75 46.7324ZM32.5 57.9824V52.9824C32.5 52.9824 36.25 49.2324 43.75 49.2324C51.25 49.2324 55 52.9824 55 52.9824V57.9824H32.5ZM5 26.7324V21.7324C5 21.7324 8.75 17.9824 16.25 17.9824C23.75 17.9824 27.5 21.7324 27.5 21.7324V26.7324H5Z" fill="#003767"/>
<path fill-rule="evenodd" clip-rule="evenodd" d="M33.75 12.9824H45V24.2324H50V10.4824V7.98242H47.5H33.75V12.9824ZM10 36.7324V50.4824V52.9824H12.5H26.25V47.9824H15V36.7324H10Z" fill="#60C5BA"/>
</svg>
