<svg width="51" height="51" viewBox="0 0 51 51" fill="none" xmlns="http://www.w3.org/2000/svg">
<path fill-rule="evenodd" clip-rule="evenodd" d="M23.2035 6.73242C21.986 9.72482 22.591 13.2852 25.019 15.713L36.0829 26.7768L47.1467 15.713C47.7312 15.1285 48.2102 14.4784 48.5833 13.7863V40.0658H2.75V6.73242H23.2035Z" fill="white"/>
<path fill-rule="evenodd" clip-rule="evenodd" d="M36.0833 7.77383L34.5208 6.21133C32.5073 4.19779 29.2427 4.19779 27.2292 6.21133C25.2156 8.22487 25.2156 11.4895 27.2292 13.503L36.0833 22.3571L44.9375 13.503C46.951 11.4895 46.951 8.22487 44.9375 6.21133C42.924 4.19779 39.6594 4.19779 37.6458 6.21133L36.0833 7.77383ZM36.0833 44.2321H29.8333V40.0655H21.5V44.2321H15.25V48.3988H36.0833V44.2321Z" fill="#FFCF01"/>
</svg>
