<svg width="50" height="51" viewBox="0 0 50 51" fill="none" xmlns="http://www.w3.org/2000/svg">
<path d="M16.6668 18.1914H5.2085V46.3164H18.7502C19.9008 46.3164 20.8335 47.2491 20.8335 48.3997H29.1668C29.1668 47.2491 30.0995 46.3164 31.2502 46.3164H44.7918V18.1914H33.3335C29.926 18.1914 26.9006 19.8276 25.0002 22.357C23.0997 19.8275 20.0743 18.1914 16.6668 18.1914Z" fill="#60C5BA"/>
<path fill-rule="evenodd" clip-rule="evenodd" d="M41.6667 12.9831H11.4583L6.25 7.77474L11.4583 2.56641H41.6667V12.9831ZM26.5625 48.3997V20.6918C25.9831 21.1879 25.4588 21.7464 25 22.357C24.5413 21.7464 24.0169 21.1879 23.4375 20.6918V48.3997H26.5625Z" fill="#003767"/>
</svg>
