<svg width="22" height="23" viewBox="0 0 22 23" fill="none" xmlns="http://www.w3.org/2000/svg">
<g id="Map Location Star Pin">
<g id="map-location-star-pin">
<path id="Union" fill-rule="evenodd" clip-rule="evenodd" d="M10.5873 20.1258L10.9998 19.5758L11.4123 20.1258L10.9998 20.4348L10.5873 20.1258ZM10.5873 20.1258L10.9998 19.5758L11.4123 20.1258L11.4151 20.124L11.4197 20.1203L11.438 20.1066L11.5022 20.0571L11.7442 19.8673C12.964 18.8906 14.1099 17.8249 15.1725 16.6792C16.1093 15.6617 17.0627 14.4728 17.785 13.2068C18.5037 11.9464 19.0207 10.5632 19.0207 9.17168C19.0207 7.10276 18.2718 5.17226 16.8748 3.75601C15.4732 2.3361 13.4593 1.47168 10.9998 1.47168C8.54042 1.47168 6.5265 2.3361 5.12492 3.75601C3.72792 5.17226 2.979 7.10276 2.979 9.17168C2.979 10.5632 3.496 11.9464 4.21559 13.2068C4.937 14.4728 5.89034 15.6626 6.82809 16.6792C7.96063 17.8998 9.18756 19.0292 10.4975 20.0571L10.5617 20.1075L10.58 20.1203L10.5846 20.124L10.5873 20.1258Z" fill="#60C5BA"/>
<path id="Union_2" fill-rule="evenodd" clip-rule="evenodd" d="M12.3318 7.65915L10.9999 5.37482L9.66801 7.65915L7.08301 8.21832L8.84576 10.1919L8.57901 12.8236L10.9999 11.7576L13.4208 12.8246L13.155 10.1928L14.9178 8.21923L12.3318 7.66007V7.65915Z" fill="#003767"/>
</g>
</g>
</svg>
