<svg width="22" height="23" viewBox="0 0 22 23" fill="none" xmlns="http://www.w3.org/2000/svg">
<path fill-rule="evenodd" clip-rule="evenodd" d="M10.5415 3.23275C15.351 3.23275 19.2498 7.1316 19.2498 11.9411H21.0832C21.0832 6.11908 16.3635 1.39941 10.5415 1.39941V3.23275ZM10.5415 6.89941C13.326 6.89941 15.5832 9.15664 15.5832 11.9411H17.4165C17.4165 8.14412 14.3384 5.06608 10.5415 5.06608V6.89941Z" fill="#003767"/>
<path fill-rule="evenodd" clip-rule="evenodd" d="M8.74889 17.2012L10.2276 14.7236L16.1939 16.4282L15.5576 21.7398L14.699 21.6923C12.4767 21.5692 10.2757 20.9425 8.28205 19.8114C7.15781 19.1734 6.10068 18.3758 5.14399 17.419C4.18731 16.4624 3.38959 15.4052 2.7517 14.281C1.62052 12.2874 0.993908 10.0863 0.870803 7.86405L0.823242 7.00547L6.13483 6.36914L7.83947 12.3354L5.31113 13.8444C5.73625 14.4522 6.2204 15.0318 6.76382 15.5752C7.38256 16.1939 8.04813 16.7358 8.74889 17.2012Z" fill="#60C5BA"/>
</svg>
