<svg width="22" height="23" viewBox="0 0 22 23" fill="none" xmlns="http://www.w3.org/2000/svg">
<path d="M11.0002 21.5661C5.43129 21.5661 0.91683 17.0516 0.91683 11.4827C0.91683 5.91388 5.43129 1.39941 11.0002 1.39941C16.569 1.39941 21.0835 5.91388 21.0835 11.4827C21.0835 17.0516 16.569 21.5661 11.0002 21.5661Z" fill="#60C5BA"/>
<path fill-rule="evenodd" clip-rule="evenodd" d="M11.7947 21.5346L14.5752 12.3988H7.42451L10.205 21.5346C9.50622 21.4801 8.82752 21.3545 8.17604 21.1647L5.50814 12.3988H0.957607C0.930401 12.0969 0.916504 11.7911 0.916504 11.4821C0.916504 11.1731 0.930401 10.8674 0.957607 10.5655H5.50814L8.17603 1.79956C8.82751 1.60989 9.50622 1.48417 10.205 1.42969L7.42451 10.5655H14.5752L11.7947 1.42969C12.4935 1.48417 13.1722 1.60989 13.8236 1.79956L16.4915 10.5655H21.0421C21.0692 10.8674 21.0832 11.1731 21.0832 11.4821C21.0832 11.7911 21.0692 12.0969 21.0421 12.3988H16.4915L13.8236 21.1647C13.1722 21.3545 12.4935 21.4801 11.7947 21.5346Z" fill="#003767"/>
</svg>
