<?xml version="1.0" encoding="utf-8"?>
<!-- Generator: Adobe Illustrator 27.4.0, SVG Export Plug-In . SVG Version: 6.00 Build 0)  -->
<svg version="1.1" id="Layer_1" xmlns="http://www.w3.org/2000/svg" xmlns:xlink="http://www.w3.org/1999/xlink" x="0px" y="0px"
	 viewBox="0 0 512 512" style="enable-background:new 0 0 512 512;" xml:space="preserve">
<style type="text/css">
	.st0{fill:#143257;}
	.st1{fill:#FFFFFF;}
</style>
<g>
	<path class="st0" d="M431.43,261.31c-0.01-0.01-0.01-0.01-0.02-0.02C431.4,261.32,431.37,261.35,431.43,261.31z"/>
	<g>
		<path d="M173.69,165.38c0.1-0.21,25.64-25.79,23.21-27.08C178.02,108.43,135.16,127.26,173.69,165.38z"/>
		<path d="M278.55,68.3c-11.09-12.07,10.01,28.37,10.42,34.97c0.36,5.88-39.61-6.86-47.81-11.09c-3.09-1.6,27.34,17.74,13.31,28.63
			c0,0,41.88-6.96,67.72,2.73C311.1,96.98,278.55,68.3,278.55,68.3z"/>
		<path d="M256.21,2.9c-139.73,0-253,113.27-253,253s113.27,253,253,253s253-113.27,253-253S395.94,2.9,256.21,2.9z M18.59,251.82
			c9.49-3.82,42.91-20.32,59.32-27.8c4.44-1.19,6.96-1.39,5.98,0.26c-26.36,41.99-29.76,117.76-22.75,168.25
			C16.21,328.73,18.53,265.08,18.59,251.82z M118.44,450.66c-0.05-0.41-4.59-32.24-9.18-46.73c-0.46,7.53-5.11,24.86-11.14,30.48
			c-4.33-3.82-6.4-5.67-9.85-9.34c4.44-68.81-35.44-76.24-0.62-169.9c2.32-6.29,21.61-48.79,52.3-51.79
			c-34.04,173.62,20.99,149.27,20.99,271.47C143.05,466.81,133.14,460.98,118.44,450.66z M188.7,485.33
			c-7.63-2.37-15.16-5.16-22.44-8.3c9.44-19.39,25.22-61.28,26.31-61.17C196.23,433.8,194.89,461.86,188.7,485.33z M426.89,277.51
			c-0.05,0-0.1-0.05-0.15-0.05c-4.07-3.3-17.85-14.75-18.05-15.42c-0.41-1.39,2.58-6.45,6.91-5.57c0.41,0.1,6.03,6.09,8.15,7.32
			c4.49,3.56,6.65-2.06,7.43-2.42c0,0,0.21-0.15,0.21-0.1c0.05-9.23-74.69-66.9-89.54-72.83c-15.47-6.19-21.72-2.63-29.86-1.6
			c-12.12,2.17-18.88,2.42-35.49-6.5c0.15,2.27,1.19,6.81,10.26,14.75c-0.46,0.21-9.59,2.48-10.63,4.95
			c2.42,0.88,13.41,4.02,16.4,5.05c1.55,0.57,1.24,3.04-0.72,4.75c-105.22,92.38,72.52,204.05,81.5,214.99
			c6.4-9.13-10.63-66.59-8.3-67.57c33.58-13.93,55.6-47.45,55.86-47.35c2.68,0.98,8.97,30.48,6.5,33.89c0,0.05-0.05,0.1-0.05,0.1
			c-1.39,1.65-9.95-7.07-10.93-6.24c-0.98,1.24,5.67,21.35,2.06,23.93c-2.32,1.65-13.57-9.65-14.18-9.85
			c-0.57,2.17,7.48,30.17,3.87,35.49c-1.81,2.63-24.45-8.77-25.69-9.44c1.19,5.52,12.28,72.88-1.5,82.17
			c-25.84,17.38-53.33,26.67-87.84,32.13l-3.15-20.37c-2.01,3.71-6.86,13.67-12.84,22.28c-15.53,1.24-25.33,0.77-26.41,0.77
			c-2.01-16.97-3.71-66.74-6.09-74.33c-4.13,7.79-13.67,28.27-21.41,38.99c-11.86-39.05-39.61-121.94-50.29-124.31
			c-3.92,19.76-2.58,61.07-5.21,56.89c-55.4-88.15-8.97-193.89-3.82-203.59c-52.2-97.28,22.85-91.3,49.57-55.5
			c1.65,2.22,7.63,1.24,10.73-1.65c-59.83-71.95-120.18-26.15-73.4,58.34c-36.62-10.26-77.16,9.23-132.1,58.18
			c0.98-28.99,7.12-55.71,17.18-80.36c12.69-11.4,30.69-21.2,44.51-31c-10.01,1.29-33.37,7.38-33.37,7.38
			C74.39,92.39,114.73,60.1,156.3,40.81c52.3,0.98,97.9,37.81,98.16,38.01c-13.2-27.13-36.98-37.96-62.57-47.51
			c74.12-9.54,122.3,24.14,137.82,67.57c0.88,2.53,5.73-1.5-0.15-15.01c-0.62-1.44-4.59-9.65-4.49-15.22
			c4.38,5,33.84,16.82,22.44,68.7c-0.31,1.39-0.52,2.94,0.93,3.92c8.36,3.56,15.22,25.69,16.51,38.94
			c0.77,8.05,2.42,11.5,5.62,15.42c18.57,15.42,69.27,53.9,69.27,64.37C439.84,260.02,438.39,269.31,426.89,277.51z M326,309.23
			c1.19-2.06,26.41-43.95,28.68-48.02c-3.97,1.19-39.3,12.74-47.3,14.96c-5.52,1.6-5.83-2.42-6.55-5.21
			c-5.36-21.41,3.66-37.4,21.04-44.72c27.65-11.66,70.1-0.1,73.09,32.03c0,0,27.39,27.23,27.49,27.39
			c0.31,0.83-36.78,30.59-48.79,40.03c-4.33,2.22-24.09,1.03-25.58,1.03c3.51-6.71,17.07-29.3,19.7-34.2
			C364.27,293.71,333.07,306.81,326,309.23z M308.31,193.64c0,0,21.15,1.39,21.15,1.55C330.13,207.67,308.1,212.83,308.31,193.64z"
			/>
	</g>
	<path class="st1" d="M431.38,261.26c0,0,0.01,0.01,0.03,0.03C431.42,261.28,431.42,261.26,431.38,261.26z"/>
</g>
</svg>
